<svg width="147" height="111" viewBox="0 0 147 111" fill="none" xmlns="http://www.w3.org/2000/svg">
<path d="M132.938 87.875C132.938 90.3283 131.871 92.681 129.973 94.4157C128.074 96.1504 125.499 97.125 122.814 97.125H31.6978C29.0128 97.125 26.4377 96.1504 24.5391 94.4157C22.6405 92.681 21.5738 90.3283 21.5738 87.875V37C21.5738 34.5467 22.6405 32.194 24.5391 30.4593C26.4377 28.7246 29.0128 27.75 31.6978 27.75H51.9459L62.0699 13.875H92.4419L102.566 27.75H122.814C125.499 27.75 128.074 28.7246 129.973 30.4593C131.871 32.194 132.938 34.5467 132.938 37V87.875Z" stroke="#A6A3AD" stroke-width="9.25" stroke-linecap="round" stroke-linejoin="round"/>
<path d="M77.2559 78.625C88.4386 78.625 97.5039 70.3423 97.5039 60.125C97.5039 49.9077 88.4386 41.625 77.2559 41.625C66.0732 41.625 57.0079 49.9077 57.0079 60.125C57.0079 70.3423 66.0732 78.625 77.2559 78.625Z" stroke="#A6A3AD" stroke-width="9.25" stroke-linecap="round" stroke-linejoin="round"/>
<path d="M15 26L138.699 97.4178" stroke="#A6A3AD" stroke-width="10" stroke-linecap="round"/>
</svg>
