<svg width="15" height="18" viewBox="0 0 15 18" fill="none" xmlns="http://www.w3.org/2000/svg">
<path d="M4.71429 13.6428H10.2857M4.71429 10.8571H10.2857M8.42892 0.643632C8.34021 0.642822 8.24042 0.642822 8.12652 0.642822H3.97161C2.93151 0.642822 2.41108 0.642822 2.01381 0.84524C1.66437 1.02329 1.38047 1.30719 1.20242 1.65663C1 2.0539 1 2.57433 1 3.61443V14.3859C1 15.426 1 15.9457 1.20242 16.343C1.38047 16.6924 1.66437 16.9768 2.01381 17.1549C2.41069 17.3571 2.9305 17.3571 3.96859 17.3571L11.0314 17.3571C12.0695 17.3571 12.5886 17.3571 12.9854 17.1549C13.3349 16.9768 13.6197 16.6924 13.7978 16.343C14 15.9461 14 15.4271 14 14.389V6.51667C14 6.40277 13.9999 6.30296 13.9991 6.21425M8.42892 0.643632C8.69399 0.646049 8.86103 0.655884 9.02117 0.694331C9.21066 0.739824 9.39229 0.814854 9.55845 0.916678C9.74581 1.03149 9.90668 1.19236 10.2277 1.51336L13.1299 4.41559C13.4511 4.73679 13.6108 4.89694 13.7257 5.08436C13.8275 5.25052 13.9028 5.4317 13.9483 5.6212C13.9868 5.78134 13.9967 5.94919 13.9991 6.21425M8.42892 0.643632L8.42857 3.24302C8.42857 4.28311 8.42857 4.80296 8.63099 5.20023C8.80904 5.54967 9.09294 5.83398 9.44238 6.01203C9.83926 6.21425 10.3591 6.21425 11.3971 6.21425H13.9991" stroke="#121212" stroke-width="0.928571" stroke-linecap="round" stroke-linejoin="round"/>
</svg>
