<svg width="111" height="111" viewBox="0 0 111 111" fill="none" xmlns="http://www.w3.org/2000/svg">
<path d="M106.375 87.875C106.375 90.3283 105.4 92.681 103.666 94.4157C101.931 96.1504 99.5783 97.125 97.125 97.125H13.875C11.4217 97.125 9.06897 96.1504 7.33426 94.4157C5.59955 92.681 4.625 90.3283 4.625 87.875V37C4.625 34.5467 5.59955 32.194 7.33426 30.4593C9.06897 28.7246 11.4217 27.75 13.875 27.75H32.375L41.625 13.875H69.375L78.625 27.75H97.125C99.5783 27.75 101.931 28.7246 103.666 30.4593C105.4 32.194 106.375 34.5467 106.375 37V87.875Z" stroke="#A6A3AD" stroke-width="9.25" stroke-linecap="round" stroke-linejoin="round"/>
<path d="M55.5 78.625C65.7173 78.625 74 70.3423 74 60.125C74 49.9077 65.7173 41.625 55.5 41.625C45.2827 41.625 37 49.9077 37 60.125C37 70.3423 45.2827 78.625 55.5 78.625Z" stroke="#A6A3AD" stroke-width="9.25" stroke-linecap="round" stroke-linejoin="round"/>
</svg>
